<?xml version="1.0" standalone="no"?>
<!DOCTYPE svg PUBLIC "-//W3C//DTD SVG 20010904//EN"
 "http://www.w3.org/TR/2001/REC-SVG-20010904/DTD/svg10.dtd">
<svg version="1.0" xmlns="http://www.w3.org/2000/svg"
 width="1000.000000pt" height="1000.000000pt" viewBox="0 0 1000.000000 1000.000000"
 preserveAspectRatio="xMidYMid meet">
<metadata>
Created by potrace 1.14, written by Peter Selinger 2001-2017
</metadata>
<g transform="translate(0.000000,1000.000000) scale(0.100000,-0.100000)"
fill="#000000" stroke="none">
<path d="M4539 8586 c-2 -2 -35 -6 -74 -9 -38 -3 -80 -8 -92 -11 -11 -2 -43
-8 -70 -12 -54 -8 -224 -59 -323 -96 -229 -88 -442 -229 -631 -418 -85 -85
-122 -127 -196 -226 -21 -28 -28 -30 -98 -32 -42 -2 -88 -7 -102 -13 -14 -5
-28 -8 -30 -5 -3 2 -22 -2 -43 -9 -21 -7 -60 -14 -86 -16 -27 -1 -65 -10 -84
-20 -19 -10 -66 -28 -105 -40 -83 -26 -199 -80 -245 -114 -19 -14 -40 -25 -47
-25 -8 0 -16 -7 -19 -15 -4 -8 -12 -15 -20 -15 -31 0 -264 -249 -264 -282 0
-10 -7 -21 -15 -25 -9 -3 -23 -20 -31 -37 -9 -17 -29 -44 -44 -61 -16 -16 -38
-49 -50 -72 -11 -23 -33 -54 -47 -69 -14 -15 -39 -50 -56 -78 -17 -28 -34 -53
-37 -56 -16 -13 -52 -72 -62 -102 -6 -17 -22 -48 -35 -66 -13 -19 -23 -42 -23
-51 0 -9 -13 -33 -30 -52 -19 -24 -31 -52 -35 -85 -4 -27 -15 -63 -25 -79 -11
-17 -22 -46 -25 -64 -3 -19 -8 -38 -11 -43 -3 -5 -7 -21 -10 -36 -2 -15 -9
-38 -14 -52 -5 -14 -16 -63 -25 -110 -8 -47 -17 -95 -19 -107 -3 -12 -6 -125
-7 -250 l-2 -228 -71 -70 c-111 -109 -197 -208 -244 -280 -15 -22 -33 -46 -39
-53 -7 -7 -13 -20 -13 -28 0 -8 -4 -14 -10 -14 -5 0 -10 -6 -10 -14 0 -8 -3
-16 -8 -18 -12 -5 -98 -197 -126 -283 -81 -242 -83 -539 -7 -733 37 -93 110
-232 155 -295 53 -74 171 -208 194 -221 9 -5 30 -23 48 -40 96 -93 276 -203
454 -278 95 -40 249 -93 295 -102 17 -3 48 -10 70 -16 22 -5 56 -12 75 -15 19
-3 44 -7 55 -10 11 -2 49 -7 85 -11 90 -9 104 -16 130 -66 12 -24 25 -45 29
-48 3 -3 15 -18 24 -33 34 -54 153 -180 233 -248 39 -34 195 -129 210 -129 7
0 14 -4 16 -8 5 -14 152 -76 258 -110 193 -63 375 -87 647 -87 199 0 203 0
197 -20 -49 -183 -112 -360 -156 -442 -22 -43 -58 -109 -78 -148 -20 -38 -68
-115 -107 -170 -40 -55 -91 -127 -115 -160 -105 -147 -123 -191 -106 -254 12
-41 33 -63 75 -80 34 -14 118 -8 128 9 3 5 27 12 53 16 26 3 61 14 77 24 17
10 47 21 69 24 21 4 41 8 45 10 9 6 168 16 341 21 85 3 165 7 178 10 37 7 93
7 297 0 447 -14 466 -15 565 -35 78 -15 142 -22 245 -26 56 -1 123 -8 150 -14
28 -7 57 -13 65 -15 92 -19 162 20 180 99 8 37 -6 106 -22 106 -4 0 -8 5 -8
10 0 12 -62 143 -71 150 -4 3 -17 28 -29 55 -12 28 -33 64 -46 81 -13 17 -29
53 -35 80 -14 56 -59 155 -120 264 -53 96 -89 167 -89 179 0 5 26 12 58 16 72
8 306 53 338 65 13 5 24 8 24 5 0 -9 139 49 231 96 89 46 187 105 199 119 3 4
12 11 21 16 37 21 109 85 206 182 l102 103 40 -21 c97 -49 154 -65 276 -79
150 -16 345 33 489 122 11 7 52 32 90 56 266 164 709 551 844 736 29 39 60 81
70 95 65 89 163 284 205 410 68 201 82 281 82 465 -1 167 -14 255 -65 430 -48
163 -48 165 -178 445 -21 45 -73 131 -89 148 -7 7 -13 17 -13 21 0 4 -8 16
-17 27 -10 10 -36 42 -58 69 -21 28 -60 71 -86 97 l-47 47 1 138 c0 109 -9
266 -18 303 0 3 -9 41 -19 85 -47 213 -140 438 -247 598 -91 135 -119 170
-232 292 -97 104 -124 131 -241 229 -26 23 -56 48 -65 56 -9 9 -35 29 -56 45
-22 17 -49 38 -59 48 -11 9 -23 17 -27 17 -4 0 -14 6 -21 13 -7 6 -33 26 -58
42 -25 17 -46 33 -48 38 -2 4 -7 7 -12 7 -5 0 -35 17 -67 38 -93 62 -318 167
-449 211 -66 22 -176 51 -244 63 -108 20 -124 26 -138 48 -62 98 -225 272
-308 328 -11 6 -39 26 -64 42 -103 69 -303 150 -410 166 -19 3 -41 7 -49 10
-8 2 -42 7 -75 10 -34 3 -83 7 -111 10 -62 6 -700 15 -706 10z m-437 -1825
c41 -16 96 -77 108 -119 28 -103 -2 -202 -89 -290 -93 -94 -189 -203 -218
-249 -10 -15 -30 -41 -45 -58 -15 -16 -28 -33 -28 -36 0 -5 -29 -37 -143 -159
-32 -34 -197 -268 -197 -279 0 -5 -4 -11 -9 -13 -5 -1 -12 -28 -16 -58 -4 -30
-9 -59 -12 -63 -15 -24 -21 -1000 -8 -1279 7 -144 5 -172 -9 -208 -62 -156
-301 -159 -364 -5 -16 40 -19 69 -28 285 -9 189 -9 321 -4 885 4 383 15 346
-155 521 -65 65 -144 155 -177 199 -33 44 -64 82 -69 83 -5 2 -9 8 -9 13 0 4
-13 28 -29 51 -105 154 -179 272 -207 328 -29 56 -33 73 -30 130 4 110 54 181
147 205 111 30 209 -28 245 -145 9 -30 24 -64 34 -75 9 -11 26 -36 36 -55 10
-19 21 -37 24 -40 3 -3 36 -52 75 -110 38 -58 74 -110 80 -116 5 -7 21 -26 35
-44 47 -61 163 -179 171 -174 4 2 33 41 65 87 32 45 63 87 68 93 6 6 36 40 66
74 30 35 68 77 84 94 16 17 63 76 104 131 42 55 107 132 145 170 37 39 80 92
94 120 27 53 76 105 99 105 8 0 14 4 14 8 0 12 119 6 152 -7z m3172 -66 c139
-11 209 -67 220 -176 5 -54 -15 -120 -48 -160 -14 -17 -26 -27 -26 -23 0 4 -8
-2 -18 -14 -22 -25 -39 -63 -91 -207 -42 -119 -104 -266 -171 -410 -40 -86
-63 -133 -223 -447 l-70 -137 36 -54 c72 -108 74 -204 6 -280 -49 -56 -91 -72
-175 -64 l-62 6 -45 -87 c-54 -107 -124 -231 -188 -334 -76 -123 -86 -113 114
-114 94 0 204 -3 242 -7 81 -8 272 -9 329 -2 43 6 76 21 76 35 0 5 14 25 31
44 45 51 120 74 192 57 130 -29 209 -119 202 -232 -5 -99 -55 -159 -180 -219
-77 -37 -166 -64 -250 -78 -49 -8 -323 -8 -590 1 -238 8 -286 0 -420 -70 -81
-42 -98 -47 -171 -51 -90 -5 -111 3 -171 64 -49 50 -62 127 -39 229 8 39 49
140 70 175 12 19 32 56 46 83 13 26 28 47 32 47 5 0 8 5 8 11 0 6 29 57 63
112 35 56 72 118 83 137 10 19 21 37 24 40 12 12 66 111 160 295 40 77 76 144
81 149 13 14 -5 39 -84 118 -136 137 -179 204 -179 280 1 201 247 271 371 104
21 -28 50 -61 64 -74 l25 -24 46 89 c92 176 192 383 261 538 34 77 95 239 95
252 0 14 -18 15 -139 10 -76 -4 -145 -9 -152 -11 -8 -3 -39 -7 -69 -10 -71 -8
-121 -16 -140 -22 -8 -3 -26 -8 -40 -10 -14 -3 -41 -9 -60 -14 -223 -58 -357
-54 -428 13 -81 75 -85 216 -8 291 47 47 89 63 156 61 36 -2 83 2 105 7 22 6
49 12 60 13 11 2 65 13 120 25 55 12 120 24 145 26 25 3 56 7 70 10 14 3 57 8
95 11 39 3 71 6 73 8 5 4 456 -3 536 -10z"/>
</g>
</svg>
