<svg id="svg" version="1.1" xmlns="http://www.w3.org/2000/svg" xmlns:xlink="http://www.w3.org/1999/xlink" width="50" height="50" viewBox="0, 0, 400,400"><g id="svgg"><path id="path0" d="M175.800 57.004 C 170.587 57.721,168.826 58.146,162.767 60.146 C 158.326 61.612,149.623 65.504,148.800 66.392 C 148.690 66.511,147.941 66.953,147.136 67.376 C 146.330 67.798,144.819 68.786,143.777 69.572 C 142.735 70.357,141.604 71.180,141.263 71.400 C 138.239 73.350,129.381 82.358,126.442 86.472 L 125.105 88.344 121.852 88.530 C 118.331 88.732,116.257 89.056,115.000 89.601 C 114.560 89.792,112.987 90.064,111.504 90.205 C 110.022 90.347,108.717 90.610,108.606 90.790 C 108.495 90.970,106.378 91.787,103.902 92.606 C 101.426 93.425,99.198 94.256,98.952 94.454 C 98.705 94.651,97.400 95.364,96.052 96.037 C 94.703 96.711,93.600 97.428,93.600 97.631 C 93.600 97.834,93.338 98.000,93.018 98.000 C 92.170 98.000,89.745 99.737,87.564 101.908 C 86.518 102.949,85.466 103.980,85.226 104.200 C 83.853 105.459,80.429 109.679,80.203 110.389 C 80.057 110.849,79.502 111.662,78.969 112.195 C 78.436 112.728,78.000 113.360,78.000 113.599 C 78.000 113.839,77.544 114.522,76.986 115.117 C 76.429 115.713,75.312 117.325,74.503 118.700 C 73.695 120.075,72.897 121.200,72.731 121.200 C 72.564 121.200,71.587 122.505,70.558 124.100 C 69.530 125.695,68.376 127.360,67.992 127.800 C 67.609 128.240,67.049 129.320,66.748 130.200 C 66.447 131.080,65.919 132.112,65.576 132.494 C 65.233 132.875,64.526 134.225,64.004 135.494 C 63.482 136.762,62.728 138.035,62.328 138.323 C 61.854 138.663,61.597 139.360,61.591 140.323 C 61.586 141.135,61.206 142.610,60.745 143.600 C 60.284 144.590,59.764 145.940,59.590 146.600 C 59.415 147.260,58.902 149.161,58.450 150.825 C 56.599 157.638,56.272 160.339,56.114 170.121 L 55.959 179.643 52.280 183.322 C 50.256 185.346,47.462 188.441,46.070 190.201 C 44.679 191.960,43.326 193.670,43.063 194.000 C 40.142 197.674,36.088 206.586,34.057 213.800 C 32.451 219.505,32.449 233.494,34.053 237.488 C 34.298 238.099,34.640 238.960,34.811 239.400 C 38.214 248.156,43.849 256.210,50.410 261.697 C 51.394 262.521,52.650 263.581,53.200 264.053 C 56.460 266.849,66.155 272.179,71.600 274.168 C 73.250 274.771,74.960 275.425,75.400 275.621 C 76.383 276.060,82.020 277.577,84.200 277.989 C 87.481 278.610,91.067 279.172,93.203 279.399 C 95.947 279.691,95.805 279.583,98.256 283.232 C 109.467 299.927,126.111 307.635,152.464 308.337 L 162.328 308.600 162.812 304.800 C 163.600 298.608,163.956 293.930,164.377 284.200 C 164.844 273.405,165.443 261.878,165.989 253.200 C 166.203 249.790,166.472 245.200,166.586 243.000 C 167.018 234.700,167.635 234.125,177.322 232.982 C 183.136 232.297,186.555 232.255,189.800 232.830 C 191.120 233.064,195.397 233.329,199.304 233.420 C 207.184 233.602,207.811 233.768,209.991 236.250 C 212.292 238.872,212.264 238.590,212.348 259.536 C 212.422 277.863,212.476 279.179,213.388 284.736 C 213.917 287.961,214.465 291.500,214.606 292.600 C 214.747 293.700,215.322 296.850,215.882 299.600 C 218.270 311.308,218.584 312.469,219.886 314.400 C 220.553 315.390,221.232 316.629,221.393 317.153 C 221.591 317.793,221.786 317.947,221.987 317.621 C 222.152 317.355,223.437 316.981,224.843 316.792 C 227.531 316.429,230.588 315.875,233.600 315.203 C 234.590 314.983,236.480 314.563,237.800 314.270 C 240.284 313.718,241.081 313.400,246.800 310.668 C 249.936 309.170,255.559 305.833,257.358 304.403 C 260.405 301.980,264.311 298.385,266.340 296.137 L 268.745 293.472 271.673 294.896 C 278.370 298.154,291.535 298.315,295.800 295.191 C 296.020 295.030,296.650 294.761,297.200 294.593 C 299.171 293.992,308.681 287.995,310.975 285.906 C 311.402 285.518,311.884 285.200,312.047 285.200 C 312.210 285.200,312.581 284.975,312.871 284.700 C 313.162 284.425,314.480 283.402,315.800 282.427 C 317.120 281.451,318.290 280.545,318.400 280.413 C 318.510 280.281,319.500 279.459,320.600 278.586 C 321.700 277.714,322.690 276.898,322.800 276.772 C 322.910 276.647,324.350 275.371,326.000 273.936 C 329.767 270.660,334.374 266.065,336.314 263.651 C 337.131 262.634,338.057 261.531,338.372 261.201 C 338.687 260.870,339.754 259.340,340.743 257.800 C 341.733 256.260,342.645 254.910,342.771 254.800 C 344.183 253.564,349.162 242.505,350.604 237.400 C 350.977 236.080,351.439 234.550,351.631 234.000 C 353.111 229.759,353.108 213.633,351.627 209.200 C 351.443 208.650,351.076 207.390,350.811 206.400 C 349.861 202.851,347.878 196.960,346.907 194.800 C 344.951 190.448,341.088 182.596,340.807 182.400 C 340.649 182.290,340.288 181.761,340.006 181.225 C 339.432 180.137,339.091 179.686,337.500 177.910 C 336.895 177.234,336.400 176.534,336.400 176.355 C 336.400 176.175,335.140 174.730,333.600 173.144 L 330.800 170.259 330.800 163.930 C 330.800 157.978,330.268 152.991,329.143 148.400 C 328.219 144.627,326.657 139.720,325.747 137.726 C 325.226 136.585,324.800 135.536,324.800 135.394 C 324.800 134.447,320.700 126.898,318.720 124.200 C 313.925 117.666,311.836 115.212,305.981 109.233 C 304.927 108.157,300.056 103.915,299.128 103.265 C 298.644 102.926,297.946 102.346,297.577 101.977 C 297.208 101.608,295.847 100.518,294.553 99.555 C 293.259 98.592,292.110 97.708,292.000 97.589 C 291.890 97.471,290.810 96.753,289.600 95.995 C 288.390 95.237,287.163 94.389,286.874 94.111 C 284.589 91.914,271.048 85.247,265.400 83.537 C 262.158 82.557,258.260 81.605,255.049 81.012 C 251.386 80.334,251.087 80.176,249.868 78.274 C 249.056 77.005,248.489 76.293,246.200 73.661 C 243.150 70.156,240.129 67.397,237.581 65.788 C 236.611 65.176,235.606 64.463,235.347 64.204 C 234.936 63.794,230.102 61.354,227.800 60.395 C 225.677 59.511,222.218 58.516,218.200 57.633 C 212.736 56.433,183.141 55.994,175.800 57.004 M164.039 129.871 C 170.731 133.167,170.138 139.759,162.408 148.000 C 160.102 150.458,157.346 153.662,156.283 155.121 C 154.027 158.216,151.313 161.456,148.851 163.996 C 147.889 164.988,146.630 166.430,146.053 167.200 C 145.476 167.970,144.914 168.690,144.802 168.800 C 144.691 168.910,143.340 170.890,141.800 173.200 C 140.260 175.510,138.886 177.490,138.746 177.600 C 137.786 178.356,137.175 196.765,137.296 221.276 L 137.400 242.353 136.037 243.761 C 132.917 246.983,128.109 247.412,125.190 244.728 C 121.995 241.792,121.815 239.778,121.913 208.139 C 122.008 177.618,122.952 181.886,114.045 172.552 C 111.710 170.105,109.250 167.405,108.577 166.552 C 107.134 164.720,102.400 158.053,102.400 157.851 C 102.400 157.774,101.110 155.751,99.534 153.356 C 93.638 144.397,93.121 139.338,97.741 135.819 C 102.129 132.477,110.000 135.342,110.000 140.281 C 110.000 140.872,111.131 143.261,111.571 143.600 C 111.714 143.710,112.800 145.330,113.984 147.200 C 115.168 149.070,116.286 150.660,116.469 150.733 C 116.651 150.807,116.800 151.094,116.800 151.371 C 116.800 151.649,117.250 152.399,117.800 153.038 C 118.349 153.677,118.799 154.307,118.800 154.439 C 118.800 154.570,119.115 155.041,119.500 155.485 C 119.885 155.930,120.643 156.872,121.185 157.579 C 123.012 159.965,127.693 164.800,128.176 164.800 C 128.673 164.800,130.395 163.021,130.406 162.497 C 130.410 162.334,130.950 161.591,131.606 160.846 C 132.263 160.101,132.800 159.370,132.800 159.221 C 132.800 159.073,133.205 158.520,133.700 157.994 C 134.195 157.467,135.108 156.398,135.728 155.618 C 136.349 154.838,137.717 153.300,138.769 152.200 C 139.822 151.100,141.958 148.516,143.517 146.457 C 145.077 144.398,147.848 141.086,149.676 139.098 C 151.504 137.109,153.302 134.829,153.670 134.031 C 154.484 132.269,156.586 130.000,157.403 130.000 C 157.732 130.000,158.000 129.820,158.000 129.600 C 158.000 128.934,162.551 129.138,164.039 129.871 M289.442 132.409 C 299.521 133.208,303.133 140.128,296.639 146.200 C 295.563 147.206,294.663 148.543,294.214 149.800 C 292.097 155.729,290.614 159.626,289.758 161.511 C 289.231 162.672,288.800 163.780,288.800 163.973 C 288.800 164.166,288.454 165.016,288.031 165.862 C 287.608 166.708,286.573 168.916,285.731 170.768 C 284.400 173.697,281.791 178.956,275.558 191.279 C 273.842 194.670,273.711 195.410,274.601 196.680 C 279.736 204.012,276.934 210.928,268.862 210.842 L 265.727 210.808 264.065 214.104 C 263.151 215.917,261.842 218.390,261.157 219.600 C 260.473 220.810,259.364 222.790,258.694 224.000 C 258.023 225.210,256.873 227.098,256.138 228.195 C 255.402 229.292,254.800 230.417,254.800 230.695 C 254.800 230.973,254.620 231.200,254.400 231.200 C 254.180 231.200,254.000 231.450,254.000 231.756 C 254.000 232.206,255.658 232.359,262.700 232.558 C 267.485 232.694,273.812 232.912,276.761 233.044 C 283.819 233.359,286.458 232.848,287.639 230.936 C 289.247 228.335,290.933 227.430,294.148 227.444 C 296.869 227.455,297.301 227.579,300.639 229.304 C 305.946 232.045,304.524 241.228,298.319 244.300 C 290.669 248.087,289.681 248.220,270.326 248.077 C 252.113 247.942,251.781 247.974,247.503 250.296 C 236.946 256.025,229.115 251.536,231.789 241.289 C 232.473 238.668,235.487 231.933,236.095 231.667 C 236.263 231.593,236.400 231.291,236.400 230.995 C 236.400 230.699,236.625 230.212,236.900 229.913 C 237.175 229.614,237.658 228.926,237.973 228.385 C 238.289 227.843,240.194 224.700,242.207 221.400 C 245.949 215.266,247.394 212.679,251.856 204.118 C 255.022 198.042,255.114 198.759,250.580 194.128 C 243.136 186.524,241.935 182.690,245.702 178.547 C 248.973 174.948,255.645 175.147,257.655 178.902 C 259.221 181.829,262.277 183.955,262.684 182.400 C 262.799 181.960,263.052 181.600,263.247 181.600 C 263.441 181.600,263.600 181.402,263.600 181.160 C 263.600 180.680,264.823 177.922,265.179 177.600 C 265.434 177.369,267.787 172.618,270.926 166.000 C 273.951 159.619,274.687 157.940,276.799 152.600 C 277.460 150.927,278.400 148.162,278.400 147.887 C 278.400 147.449,268.730 147.546,265.477 148.016 C 260.495 148.737,257.852 149.178,256.200 149.564 C 244.219 152.365,240.037 152.341,236.862 149.453 C 234.302 147.124,233.791 142.409,235.811 139.736 C 238.134 136.660,238.817 136.345,244.000 135.963 C 246.090 135.808,249.060 135.407,250.600 135.072 C 252.140 134.736,254.660 134.189,256.200 133.856 C 257.740 133.523,260.977 133.047,263.394 132.798 C 265.810 132.550,267.865 132.268,267.960 132.173 C 268.302 131.832,284.389 132.008,289.442 132.409 M229.267 332.820 C 229.501 333.492,229.767 333.967,229.857 333.876 C 230.056 333.678,229.301 331.600,229.031 331.600 C 228.927 331.600,229.033 332.149,229.267 332.820 M230.432 336.476 C 230.414 336.848,230.595 337.273,230.832 337.420 C 231.070 337.567,231.610 338.253,232.031 338.944 C 232.452 339.635,232.798 339.989,232.799 339.731 C 232.799 339.473,232.377 338.753,231.860 338.131 C 231.342 337.509,230.816 336.730,230.691 336.400 C 230.505 335.910,230.457 335.925,230.432 336.476 M147.479 340.100 C 146.394 341.568,145.662 342.832,146.263 342.200 C 147.005 341.420,148.838 338.800,148.641 338.800 C 148.531 338.800,148.008 339.385,147.479 340.100 M180.500 354.696 C 181.765 354.775,183.835 354.775,185.100 354.696 C 186.365 354.616,185.330 354.551,182.800 354.551 C 180.270 354.551,179.235 354.616,180.500 354.696 M174.700 355.082 C 175.195 355.178,176.005 355.178,176.500 355.082 C 176.995 354.987,176.590 354.909,175.600 354.909 C 174.610 354.909,174.205 354.987,174.700 355.082 M196.300 355.096 C 197.675 355.174,199.925 355.174,201.300 355.096 C 202.675 355.018,201.550 354.954,198.800 354.954 C 196.050 354.954,194.925 355.018,196.300 355.096 M162.500 355.487 C 163.105 355.578,164.095 355.578,164.700 355.487 C 165.305 355.395,164.810 355.320,163.600 355.320 C 162.390 355.320,161.895 355.395,162.500 355.487 M236.934 356.693 C 236.238 357.412,235.799 358.000,235.959 358.000 C 236.331 358.000,238.599 355.646,238.371 355.497 C 238.277 355.436,237.630 355.974,236.934 356.693 M139.216 355.720 C 139.178 356.479,140.482 358.412,141.304 358.815 L 142.200 359.254 141.345 358.527 C 140.875 358.127,140.207 357.260,139.861 356.600 C 139.515 355.940,139.225 355.544,139.216 355.720 M158.305 355.883 C 158.802 355.979,159.522 355.975,159.905 355.875 C 160.287 355.775,159.880 355.696,159.000 355.701 C 158.120 355.705,157.807 355.787,158.305 355.883 M214.500 356.676 C 214.885 356.776,215.515 356.776,215.900 356.676 C 216.285 356.575,215.970 356.493,215.200 356.493 C 214.430 356.493,214.115 356.575,214.500 356.676 M218.300 357.082 C 218.795 357.178,219.605 357.178,220.100 357.082 C 220.595 356.987,220.190 356.909,219.200 356.909 C 218.210 356.909,217.805 356.987,218.300 357.082 M149.000 358.400 C 148.496 358.617,148.422 358.744,148.800 358.744 C 149.130 358.744,149.760 358.589,150.200 358.400 C 150.704 358.183,150.778 358.056,150.400 358.056 C 150.070 358.056,149.440 358.211,149.000 358.400 M230.662 358.500 C 230.764 358.665,231.726 358.800,232.800 358.800 C 233.874 358.800,234.836 358.665,234.938 358.500 C 235.040 358.335,234.078 358.200,232.800 358.200 C 231.522 358.200,230.560 358.335,230.662 358.500 " stroke="none" fill="#fbc4eb" fill-rule="evenodd"></path><path id="path1" d="M175.400 233.470 C 167.924 234.465,167.167 235.371,166.787 243.773 C 164.761 288.570,163.381 306.725,161.629 311.600 C 161.431 312.150,160.510 315.022,159.582 317.981 C 158.653 320.941,157.495 324.091,157.009 324.981 C 156.522 325.872,154.989 328.760,153.602 331.400 C 152.215 334.040,150.506 336.920,149.804 337.800 C 149.103 338.680,147.583 340.840,146.427 342.600 C 145.272 344.360,144.013 346.160,143.630 346.600 C 137.250 353.934,139.437 361.663,147.101 358.868 C 148.411 358.391,149.825 358.000,150.244 358.000 C 150.663 358.000,151.824 357.565,152.824 357.032 C 155.219 355.758,158.906 355.279,170.600 354.726 C 187.095 353.946,203.511 354.379,212.600 355.834 C 216.077 356.391,220.316 356.796,222.681 356.798 C 224.926 356.799,227.176 356.963,227.681 357.162 C 233.230 359.347,237.716 357.888,238.275 353.715 C 238.488 352.130,232.696 339.553,230.949 337.806 C 230.601 337.459,230.053 336.162,229.730 334.923 C 229.177 332.806,226.926 328.122,221.804 318.432 C 220.592 316.140,219.336 313.971,219.012 313.613 C 218.688 313.256,218.132 311.621,217.776 309.981 C 215.520 299.594,215.103 297.537,214.778 295.200 C 214.579 293.770,213.927 289.810,213.328 286.400 C 212.266 280.347,212.235 279.715,212.020 259.800 C 211.779 237.490,211.915 238.665,209.263 235.891 C 207.434 233.978,205.848 233.562,201.162 233.766 C 199.093 233.857,195.240 233.680,192.600 233.373 C 186.627 232.680,181.102 232.711,175.400 233.470 " stroke="none" fill="#742c04" fill-rule="evenodd"></path><path id="path2" d="M212.154 269.200 C 212.154 271.950,212.218 273.075,212.296 271.700 C 212.374 270.325,212.374 268.075,212.296 266.700 C 212.218 265.325,212.154 266.450,212.154 269.200 " stroke="none" fill="#cb9494" fill-rule="evenodd"></path><path id="path3" d="M182.713 232.695 C 183.876 232.776,185.676 232.776,186.713 232.693 C 187.751 232.611,186.800 232.545,184.600 232.546 C 182.400 232.547,181.551 232.614,182.713 232.695 M166.531 244.200 C 166.533 245.740,166.605 246.321,166.692 245.491 C 166.779 244.661,166.777 243.401,166.689 242.691 C 166.600 241.981,166.529 242.660,166.531 244.200 M212.165 257.600 C 212.165 261.450,212.225 263.025,212.298 261.100 C 212.371 259.175,212.371 256.025,212.298 254.100 C 212.225 252.175,212.165 253.750,212.165 257.600 M165.693 256.800 C 165.693 257.570,165.775 257.885,165.876 257.500 C 165.976 257.115,165.976 256.485,165.876 256.100 C 165.775 255.715,165.693 256.030,165.693 256.800 M164.901 272.600 C 164.905 273.480,164.987 273.793,165.083 273.295 C 165.179 272.798,165.175 272.078,165.075 271.695 C 164.975 271.313,164.896 271.720,164.901 272.600 M164.493 280.400 C 164.493 281.170,164.575 281.485,164.676 281.100 C 164.776 280.715,164.776 280.085,164.676 279.700 C 164.575 279.315,164.493 279.630,164.493 280.400 M221.891 357.089 C 222.601 357.177,223.861 357.179,224.691 357.092 C 225.521 357.005,224.940 356.933,223.400 356.931 C 221.860 356.929,221.181 357.000,221.891 357.089 " stroke="none" fill="#e6adb9" fill-rule="evenodd"></path><path id="path4" d="M165.301 267.800 C 165.305 268.680,165.387 268.993,165.483 268.495 C 165.579 267.998,165.575 267.278,165.475 266.895 C 165.375 266.513,165.296 266.920,165.301 267.800 M164.528 285.600 C 164.528 287.030,164.601 287.615,164.689 286.900 C 164.778 286.185,164.778 285.015,164.689 284.300 C 164.601 283.585,164.528 284.170,164.528 285.600 M181.100 354.282 C 181.595 354.378,182.405 354.378,182.900 354.282 C 183.395 354.187,182.990 354.109,182.000 354.109 C 181.010 354.109,180.605 354.187,181.100 354.282 M190.500 354.687 C 191.105 354.778,192.095 354.778,192.700 354.687 C 193.305 354.595,192.810 354.520,191.600 354.520 C 190.390 354.520,189.895 354.595,190.500 354.687 M166.311 355.093 C 167.251 355.178,168.691 355.177,169.511 355.091 C 170.330 355.005,169.560 354.936,167.800 354.937 C 166.040 354.939,165.370 355.009,166.311 355.093 " stroke="none" fill="#b47c7c" fill-rule="evenodd"></path></g></svg>